<?xml version="1.0" encoding="utf-8"?>
<!-- Generator: Adobe Illustrator 16.2.1, SVG Export Plug-In . SVG Version: 6.00 Build 0)  -->
<!DOCTYPE svg PUBLIC "-//W3C//DTD SVG 1.1//EN" "http://www.w3.org/Graphics/SVG/1.1/DTD/svg11.dtd">
<svg version="1.1" id="Layer_1" xmlns="http://www.w3.org/2000/svg" xmlns:xlink="http://www.w3.org/1999/xlink" x="0px" y="0px"
	 width="595.279px" height="841.891px" viewBox="0.139 841.445 595.279 841.891"
	 enable-background="new 0.139 841.445 595.279 841.891" xml:space="preserve">
<g id="Layer_2">
</g>
<polygon fill="#CDCBCA" points="0.139,841.445 0.139,855.445 9.472,848.445 "/>
<polygon fill="#FFFFFF" points="0.139,855.445 0.139,869.445 9.472,862.445 "/>
<g>
	<g>
		<defs>
			<rect id="SVGID_1_" x="14.139" y="841.445" width="14" height="14"/>
		</defs>
		<clipPath id="SVGID_2_">
			<use xlink:href="#SVGID_1_"  overflow="visible"/>
		</clipPath>
		<polyline clip-path="url(#SVGID_2_)" fill="none" stroke="#CDCBCA" stroke-width="1.5312" stroke-miterlimit="10" points="
			20.615,841.986 27.058,848.445 20.615,854.904 		"/>
	</g>
</g>
<g>
	<g>
		<defs>
			<rect id="SVGID_3_" x="14.139" y="841.445" width="14" height="14"/>
		</defs>
		<clipPath id="SVGID_4_">
			<use xlink:href="#SVGID_3_"  overflow="visible"/>
		</clipPath>
		
			<line clip-path="url(#SVGID_4_)" fill="none" stroke="#CDCBCA" stroke-width="1.531" stroke-miterlimit="10" x1="26.389" y1="848.445" x2="14.139" y2="848.445"/>
	</g>
</g>
<g>
	<g>
		<defs>
			<rect id="SVGID_5_" x="14.139" y="855.445" width="14" height="14"/>
		</defs>
		<clipPath id="SVGID_6_">
			<use xlink:href="#SVGID_5_"  overflow="visible"/>
		</clipPath>
		<polyline clip-path="url(#SVGID_6_)" fill="none" stroke="#FFFFFF" stroke-width="1.5312" stroke-miterlimit="10" points="
			20.615,855.986 27.058,862.445 20.615,868.904 		"/>
	</g>
</g>
<g>
	<g>
		<defs>
			<rect id="SVGID_7_" x="14.139" y="855.445" width="14" height="14"/>
		</defs>
		<clipPath id="SVGID_8_">
			<use xlink:href="#SVGID_7_"  overflow="visible"/>
		</clipPath>
		
			<line clip-path="url(#SVGID_8_)" fill="none" stroke="#FFFFFF" stroke-width="1.531" stroke-miterlimit="10" x1="26.389" y1="862.445" x2="14.139" y2="862.445"/>
	</g>
</g>
<g>
	<g>
		<defs>
			
				<rect id="SVGID_9_" x="57.014" y="843.982" transform="matrix(-0.7071 -0.7071 0.7071 -0.7071 -493.331 1495.8704)" width="12.25" height="12.25"/>
		</defs>
		<clipPath id="SVGID_10_">
			<use xlink:href="#SVGID_9_"  overflow="visible"/>
		</clipPath>
		
			<line clip-path="url(#SVGID_10_)" fill="none" stroke="#FFFFFF" stroke-width="1.5312" stroke-miterlimit="10" x1="58.808" y1="854.439" x2="67.47" y2="845.775"/>
	</g>
</g>
<g>
	<g>
		<defs>
			
				<rect id="SVGID_11_" x="57.014" y="843.982" transform="matrix(-0.7071 -0.7071 0.7071 -0.7071 -493.331 1495.8704)" width="12.25" height="12.25"/>
		</defs>
		<clipPath id="SVGID_12_">
			<use xlink:href="#SVGID_11_"  overflow="visible"/>
		</clipPath>
		
			<line clip-path="url(#SVGID_12_)" fill="none" stroke="#FFFFFF" stroke-width="1.5312" stroke-miterlimit="10" x1="58.808" y1="845.775" x2="67.47" y2="854.439"/>
	</g>
</g>
<g>
	
		<line fill="none" stroke="#3B3837" stroke-width="1.531" stroke-miterlimit="10" x1="28.139" y1="848.445" x2="42.139" y2="848.445"/>
	
		<line fill="none" stroke="#3B3837" stroke-width="1.531" stroke-miterlimit="10" x1="35.139" y1="841.445" x2="35.139" y2="855.445"/>
</g>
<g>
	
		<line fill="none" stroke="#FFFFFF" stroke-width="1.531" stroke-miterlimit="10" x1="28.139" y1="862.529" x2="42.139" y2="862.529"/>
	
		<line fill="none" stroke="#FFFFFF" stroke-width="1.531" stroke-miterlimit="10" x1="35.139" y1="855.529" x2="35.139" y2="869.529"/>
</g>
<g>
	
		<line fill="none" stroke="#FFFFFF" stroke-width="1.531" stroke-miterlimit="10" x1="58.252" y1="843.495" x2="68.152" y2="853.396"/>
	
		<line fill="none" stroke="#FFFFFF" stroke-width="1.531" stroke-miterlimit="10" x1="68.152" y1="843.495" x2="58.252" y2="853.396"/>
</g>
<g>
	
		<line fill="none" stroke="#3B3837" stroke-width="1.531" stroke-miterlimit="10" x1="42.14" y1="848.445" x2="56.14" y2="848.445"/>
</g>
</svg>
